HIERARCHY
ROOT reference
{
  OFFSET 0 0 0
  CHANNELS 6 Xposition Yposition Zposition Zrotation Xrotation Yrotation
  JOINT Hips
  {
    OFFSET 352.076 86.5813 226.294
    CHANNELS 3 Zrotation Xrotation Yrotation
    JOINT RightUpLeg
    {
      OFFSET -9.24446 -1.53332 -0.0100408
      CHANNELS 3 Zrotation Xrotation Yrotation
      JOINT RightLeg
      {
        OFFSET 0.0379954 -41.8775 0.0555708
        CHANNELS 3 Zrotation Xrotation Yrotation
        JOINT RightFoot
        {
          OFFSET 0.0737403 -43.7597 -0.208372
          CHANNELS 3 Zrotation Xrotation Yrotation
          End Site
          {
            OFFSET 0 -7.69 17.5
          }
        }
      }
    }
    JOINT LeftUpLeg
    {
      OFFSET 9.31004 -1.65148 -0.0333589
      CHANNELS 3 Zrotation Xrotation Yrotation
      JOINT LeftLeg
      {
        OFFSET 0.0881386 -41.8624 -0.0616493
        CHANNELS 3 Zrotation Xrotation Yrotation
        JOINT LeftFoot
        {
          OFFSET 0.763074 -39.9619 0.249975
          CHANNELS 3 Zrotation Xrotation Yrotation
          End Site
          {
            OFFSET 0 -7.69 17.5
          }
        }
      }
    }
    JOINT Spine
    {
      OFFSET 0.105097 14.2958 0.096313
      CHANNELS 3 Zrotation Xrotation Yrotation
      JOINT Spine1
      {
        OFFSET 0.0609256 9.72986 0.0283835
        CHANNELS 3 Zrotation Xrotation Yrotation
        JOINT Spine2
        {
          OFFSET 0.0349843 10.1145 -0.0203086
          CHANNELS 3 Zrotation Xrotation Yrotation
          JOINT Spine3
          {
            OFFSET 0.0323734 9.71864 0.0196425
            CHANNELS 3 Zrotation Xrotation Yrotation
            JOINT Neck
            {
              OFFSET 0.219168 10.3708 0.0833364
              CHANNELS 3 Zrotation Xrotation Yrotation
              JOINT Head
              {
                OFFSET 0.200748 9.48753 0.0966912
                CHANNELS 3 Zrotation Xrotation Yrotation
                End Site
                {
                  OFFSET 0 15.95 0
                }
              }
            }
            JOINT RightShoulder
            {
              OFFSET -3.14734 6.94135 0.063802
              CHANNELS 3 Zrotation Xrotation Yrotation
              JOINT RightArm
              {
                OFFSET -12.765 0.137663 0.228635
                CHANNELS 3 Zrotation Xrotation Yrotation
                JOINT RightForeArm
                {
                  OFFSET -26.5344 -0.389186 -0.00603507
                  CHANNELS 3 Zrotation Xrotation Yrotation
                  JOINT RightHand
                  {
                    OFFSET -26.1352 -0.0585664 0.0704552
                    CHANNELS 3 Zrotation Xrotation Yrotation
                    JOINT RightHandThumb1
                    {
                      OFFSET -2.48905 0.190105 3.12053
                      CHANNELS 3 Zrotation Xrotation Yrotation
                      JOINT RightHandThumb2
                      {
                        OFFSET -3.68274 0 0
                        CHANNELS 3 Zrotation Xrotation Yrotation
                        JOINT RightHandThumb3
                        {
                          OFFSET -2.55832 0 0
                          CHANNELS 3 Zrotation Xrotation Yrotation
                          End Site
                          {
                            OFFSET -2.194 0 0
                          }
                        }
                      }
                    }
                    JOINT RightInHandIndex
                    {
                      OFFSET -3.22368 0.508421 1.97842
                      CHANNELS 3 Zrotation Xrotation Yrotation
                      JOINT RightHandIndex1
                      {
                        OFFSET -5.21684 -0.091368 0.999158
                        CHANNELS 3 Zrotation Xrotation Yrotation
                        JOINT RightHandIndex2
                        {
                          OFFSET -3.61937 0 0
                          CHANNELS 3 Zrotation Xrotation Yrotation
                          JOINT RightHandIndex3
                          {
                            OFFSET -2.0521 0 0
                            CHANNELS 3 Zrotation Xrotation Yrotation
                            End Site
                            {
                              OFFSET -1.805 0 0
                            }
                          }
                        }
                      }
                    }
                    JOINT RightInHandMiddle
                    {
                      OFFSET -3.38211 0.517263 0.756737
                      CHANNELS 3 Zrotation Xrotation Yrotation
                      JOINT RightHandMiddle1
                      {
                        OFFSET -5.17411 -0.084 0.313895
                        CHANNELS 3 Zrotation Xrotation Yrotation
                        JOINT RightHandMiddle2
                        {
                          OFFSET -3.94947 0 0
                          CHANNELS 3 Zrotation Xrotation Yrotation
                          JOINT RightHandMiddle3
                          {
                            OFFSET -2.47579 0 0
                            CHANNELS 3 Zrotation Xrotation Yrotation
                            End Site
                            {
                              OFFSET -1.975 0 0
                            }
                          }
                        }
                      }
                    }
                    JOINT RightInHandRing
                    {
                      OFFSET -3.36516 0.537895 -0.128947
                      CHANNELS 3 Zrotation Xrotation Yrotation
                      JOINT RightHandRing1
                      {
                        OFFSET -4.63474 -0.022105 -0.478947
                        CHANNELS 3 Zrotation Xrotation Yrotation
                        JOINT RightHandRing2
                        {
                          OFFSET -3.44238 0 0
                          CHANNELS 3 Zrotation Xrotation Yrotation
                          JOINT RightHandRing3
                          {
                            OFFSET -2.3881 0 0
                            CHANNELS 3 Zrotation Xrotation Yrotation
                            End Site
                            {
                              OFFSET -1.857 0 0
                            }
                          }
                        }
                      }
                    }
                    JOINT RightInHandPinky
                    {
                      OFFSET -3.16105 0.469368 -1.20179
                      CHANNELS 3 Zrotation Xrotation Yrotation
                      JOINT RightHandPinky1
                      {
                        OFFSET -4.14105 -0.022105 -1.09053
                        CHANNELS 3 Zrotation Xrotation Yrotation
                        JOINT RightHandPinky2
                        {
                          OFFSET -2.75653 0 0
                          CHANNELS 3 Zrotation Xrotation Yrotation
                          JOINT RightHandPinky3
                          {
                            OFFSET -1.74189 0 0
                            CHANNELS 3 Zrotation Xrotation Yrotation
                            End Site
                            {
                              OFFSET -1.645 0 0
                            }
                          }
                        }
                      }
                    }
                  }
                }
              }
            }
            JOINT LeftShoulder
            {
              OFFSET 3.26179 6.89719 -0.0373062
              CHANNELS 3 Zrotation Xrotation Yrotation
              JOINT LeftArm
              {
                OFFSET 12.4839 0.0196156 -0.0323257
                CHANNELS 3 Zrotation Xrotation Yrotation
                JOINT LeftForeArm
                {
                  OFFSET 26.5039 -0.120667 0.247609
                  CHANNELS 3 Zrotation Xrotation Yrotation
                  JOINT LeftHand
                  {
                    OFFSET 25.9984 -0.032285 0.00286418
                    CHANNELS 3 Zrotation Xrotation Yrotation
                    JOINT LeftHandThumb1
                    {
                      OFFSET 2.48905 0.190105 3.12053
                      CHANNELS 3 Zrotation Xrotation Yrotation
                      JOINT LeftHandThumb2
                      {
                        OFFSET 3.68274 0 0
                        CHANNELS 3 Zrotation Xrotation Yrotation
                        JOINT LeftHandThumb3
                        {
                          OFFSET 2.55832 0 0
                          CHANNELS 3 Zrotation Xrotation Yrotation
                          End Site
                          {
                            OFFSET 2.194 0 0
                          }
                        }
                      }
                    }
                    JOINT LeftInHandIndex
                    {
                      OFFSET 3.22368 0.508421 1.97842
                      CHANNELS 3 Zrotation Xrotation Yrotation
                      JOINT LeftHandIndex1
                      {
                        OFFSET 5.21684 -0.091368 0.999158
                        CHANNELS 3 Zrotation Xrotation Yrotation
                        JOINT LeftHandIndex2
                        {
                          OFFSET 3.61937 0 0
                          CHANNELS 3 Zrotation Xrotation Yrotation
                          JOINT LeftHandIndex3
                          {
                            OFFSET 2.0521 0 0
                            CHANNELS 3 Zrotation Xrotation Yrotation
                            End Site
                            {
                              OFFSET 1.805 0 0
                            }
                          }
                        }
                      }
                    }
                    JOINT LeftInHandMiddle
                    {
                      OFFSET 3.38211 0.517263 0.756737
                      CHANNELS 3 Zrotation Xrotation Yrotation
                      JOINT LeftHandMiddle1
                      {
                        OFFSET 5.17411 -0.084 0.313895
                        CHANNELS 3 Zrotation Xrotation Yrotation
                        JOINT LeftHandMiddle2
                        {
                          OFFSET 3.94947 0 0
                          CHANNELS 3 Zrotation Xrotation Yrotation
                          JOINT LeftHandMiddle3
                          {
                            OFFSET 2.47579 0 0
                            CHANNELS 3 Zrotation Xrotation Yrotation
                            End Site
                            {
                              OFFSET 1.975 0 0
                            }
                          }
                        }
                      }
                    }
                    JOINT LeftInHandRing
                    {
                      OFFSET 3.36516 0.537895 -0.128947
                      CHANNELS 3 Zrotation Xrotation Yrotation
                      JOINT LeftHandRing1
                      {
                        OFFSET 4.63474 -0.022105 -0.478947
                        CHANNELS 3 Zrotation Xrotation Yrotation
                        JOINT LeftHandRing2
                        {
                          OFFSET 3.44238 0 0
                          CHANNELS 3 Zrotation Xrotation Yrotation
                          JOINT LeftHandRing3
                          {
                            OFFSET 2.3881 0 0
                            CHANNELS 3 Zrotation Xrotation Yrotation
                            End Site
                            {
                              OFFSET 1.857 0 0
                            }
                          }
                        }
                      }
                    }
                    JOINT LeftInHandPinky
                    {
                      OFFSET 3.16105 0.469368 -1.20179
                      CHANNELS 3 Zrotation Xrotation Yrotation
                      JOINT LeftHandPinky1
                      {
                        OFFSET 4.14105 -0.022105 -1.09053
                        CHANNELS 3 Zrotation Xrotation Yrotation
                        JOINT LeftHandPinky2
                        {
                          OFFSET 2.75653 0 0
                          CHANNELS 3 Zrotation Xrotation Yrotation
                          JOINT LeftHandPinky3
                          {
                            OFFSET 1.74189 0 0
                            CHANNELS 3 Zrotation Xrotation Yrotation
                            End Site
                            {
                              OFFSET 1.645 0 0
                            }
                          }
                        }
                      }
                    }
                  }
                }
              }
            }
          }
        }
      }
    }
  }
}
MOTION
Frames: 2
Frame Time: 0.00833333
1.050000000000000000e+03 0.000000000000000000e+00 0.000000000000000000e+00 0.000000000000000000e+00 0.000000000000000000e+00 0.000000000000000000e+00 2.497858282126388119e+01 4.087374953185241466e+00 -1.253214803907656290e+02 1.548652919423742702e+01 -5.724111868115974744e+01 1.266650801009462057e+01 -6.988040489867666238e+00 1.939383346213297088e+01 1.316950084526617104e+00 1.413865306863269211e+01 1.696086863708428538e+01 4.377714152193999553e+01 4.422886908797987360e+01 -2.505626071074367900e+01 3.324387302976471403e+01 -1.833663988699334624e+01 4.689591326387869685e+01 2.184935891957022847e+01 -8.257191267908021715e+00 -2.843322807020028975e+01 -5.919574866635123556e+00 -6.968033375727218370e+00 3.999369896084865150e+00 -9.346131038183330020e+00 -1.583322595300483471e+00 7.522065508297857139e-01 -2.495850654740033647e+00 -2.649223702038445261e+00 1.078272085940232383e+00 -3.688566474931090688e+00 -7.942416894935941940e-01 -2.183930528811008354e-01 2.591138190350433579e+00 -1.299421899516312706e+00 -1.458838692195163489e+00 3.251250451055194191e+01 -1.386931073221706612e+01 2.382030171646504879e+00 2.901371043065269362e+01 8.797307740895501382e+00 4.379363992867817856e+00 -1.434334388052713294e+00 6.467007797428962590e+01 -5.474130745490163008e+01 6.304770867261407119e+00 4.564876331855098357e+01 -1.859139117861293045e+01 1.146614862862043083e+02 1.376045835365203196e+01 -2.606127758751016898e+01 -9.835786948599675839e+00 2.818400000000000105e+01 1.072940000000000005e+01 1.915919999999999845e+01 -1.086545439933119256e-14 3.083142928040546926e-15 -1.000000000000000000e+01 -1.693368892665614824e-14 5.787968596240482505e-15 -1.000000000000000000e+01 -1.786314373295604909e-15 -6.061847214705689200e-16 -2.158888969070678121e-15 1.998179999999999978e+01 8.718970000000000331e-01 2.396399999999999864e+00 2.400000000000000000e+01 7.967088576327609629e-15 1.796532396411540598e-14 2.000000000000000000e+01 -8.063387026503042719e-16 -1.155248634051538725e-14 -1.786314373295604909e-15 -6.061847214705689200e-16 -2.158888969070678121e-15 2.000000000000000000e+01 7.141656105279719902e-15 1.159237242054487394e-14 2.400000000000000000e+01 -7.990394475317899941e-15 1.716677922987314348e-14 2.000000000000000000e+01 -1.119774108187536396e-14 -1.103152675250983927e-14 -1.786314373295604909e-15 -6.061847214705689200e-16 -2.158888969070678121e-15 1.997479999999999833e+01 -1.025649999999999951e+00 -2.819380000000000219e+00 2.400000000000000000e+01 5.206666884934846032e-15 2.675226946104605603e-14 2.000000000000000000e+01 -1.976842090817385731e-15 -6.652854624490668778e-15 -1.786314373295604909e-15 -6.061847214705689200e-16 -2.158888969070678121e-15 1.978150000000000119e+01 -3.009479999999999933e+00 -8.305149999999999366e+00 2.400000000000000000e+01 4.998263258491067151e-15 2.068206488473421360e-14 2.000000000000000000e+01 4.526484280306622505e-15 -2.516324653465136790e-15 1.459533198453535796e+01 -1.590479456553400261e+01 -4.922250701728228250e+01 -9.691453580217903152e+00 3.769140112706573120e+01 -1.112793098660461908e+02 2.594140875572215776e+01 -1.374931711901451692e+01 -1.035076308613088258e+01 -2.842201590973955305e+01 -1.288526971231254414e+01 -3.932936045953791204e+00 -2.818400000000000105e+01 1.072940000000000005e+01 -1.915919999999999845e+01 -2.773962624973584338e-15 -2.954914445307371483e-16 1.000000000000000000e+01 8.804802124380324737e-15 -6.083210460669968931e-16 1.000000000000000000e+01 2.056564109057706125e-15 8.958243109707774001e-16 -3.018018176749677330e-16 -1.998179999999999978e+01 8.718970000000000331e-01 -2.396399999999999864e+00 -2.400000000000000000e+01 -9.923858378784476370e-16 2.165619186543128863e-14 -2.000000000000000000e+01 -4.330998830012273279e-16 1.080353386102948552e-14 2.056564109057706125e-15 8.958243109707774001e-16 -3.018018176749677330e-16 -2.000000000000000000e+01 -2.300259671826826029e-15 1.177090266413128186e-14 -2.400000000000000000e+01 -1.986715002009423357e-15 1.087636830639327664e-14 -2.000000000000000000e+01 -2.754727266057491114e-15 6.017680029128212055e-15 2.056564109057706125e-15 8.958243109707774001e-16 -3.018018176749677330e-16 -1.997479999999999833e+01 -1.025649999999999951e+00 2.819380000000000219e+00 -2.400000000000000000e+01 -4.360337679967124017e-15 1.369813836124276364e-14 -2.000000000000000000e+01 -1.067599422226145693e-15 1.052466359208153282e-14 2.056564109057706125e-15 8.958243109707774001e-16 -3.018018176749677330e-16 -1.978150000000000119e+01 -3.009479999999999933e+00 8.305149999999999366e+00 -2.400000000000000000e+01 -3.591640396611516661e-16 1.706119526735988104e-14 -2.000000000000000000e+01 -2.838387677699954924e-15 1.390527317601078548e-14
1.050000000000000000e+03 0.000000000000000000e+00 0.000000000000000000e+00 0.000000000000000000e+00 0.000000000000000000e+00 0.000000000000000000e+00 2.496980919077523708e+01 4.127401050651181791e+00 -1.251477993642521369e+02 1.542091164004623494e+01 -5.717414008615703125e+01 1.261368713838673195e+01 -6.973850647840796668e+00 1.938379871122115716e+01 1.277221872450917672e+00 1.415020155967540028e+01 1.691549781916019768e+01 4.368883288380155250e+01 4.412373267477396155e+01 -2.509789543772573950e+01 3.313460750062303362e+01 -1.826296664872245046e+01 4.685611981001187587e+01 2.177222665015013092e+01 -8.263126063352345341e+00 -2.839037690072942510e+01 -5.960973429638233512e+00 -6.949955804809343718e+00 3.995963465802074399e+00 -9.303431824428315622e+00 -1.579150582103918454e+00 7.523979175494094340e-01 -2.484204259873098231e+00 -2.642259985767661856e+00 1.079218888845996371e+00 -3.672168385384587452e+00 -7.917912876822044144e-01 -2.176654918843582698e-01 2.583710643510032767e+00 -1.294918537290811855e+00 -1.458107577821053269e+00 3.242198498323416089e+01 -1.382462284848392997e+01 2.392572026281118980e+00 2.892639983290973404e+01 8.777441191736727433e+00 4.346847459687413817e+00 -1.400587474516546749e+00 6.465070108075562416e+01 -5.463488238315791534e+01 6.403437490362858142e+00 4.553747949528487027e+01 -1.854743849966596514e+01 1.145372079276896216e+02 1.374622913613138842e+01 -2.605635304496983906e+01 -9.761951940330014565e+00 2.818400000000000105e+01 1.072940000000000005e+01 1.915919999999999845e+01 -1.085617657698722922e-14 3.087871166304478941e-15 -1.000000000000000000e+01 -1.692480196742641748e-14 5.793696950099894255e-15 -1.000000000000000000e+01 -1.781064138155893507e-15 -6.087604905666572931e-16 -2.155503972376258583e-15 1.998179999999999978e+01 8.718970000000000331e-01 2.396399999999999864e+00 2.400000000000000000e+01 7.962957897749520952e-15 1.796474309196872501e-14 2.000000000000000000e+01 -8.002678856995242533e-16 -1.155014796917396690e-14 -1.781064138155893507e-15 -6.087604905666572931e-16 -2.155503972376258583e-15 2.000000000000000000e+01 7.147140234667956976e-15 1.158457150841407260e-14 2.400000000000000000e+01 -7.986034538035181080e-15 1.717811436140953764e-14 2.000000000000000000e+01 -1.120405091147776064e-14 -1.103257715624093699e-14 -1.781064138155893507e-15 -6.087604905666572931e-16 -2.155503972376258583e-15 1.997479999999999833e+01 -1.025649999999999951e+00 -2.819380000000000219e+00 2.400000000000000000e+01 5.204250202549891974e-15 2.674577082507744069e-14 2.000000000000000000e+01 -1.976563174912348221e-15 -6.654756174840022938e-15 -1.781064138155893507e-15 -6.087604905666572931e-16 -2.155503972376258583e-15 1.978150000000000119e+01 -3.009479999999999933e+00 -8.305149999999999366e+00 2.400000000000000000e+01 5.006166632230599335e-15 2.068194255114312464e-14 2.000000000000000000e+01 4.531367155888694240e-15 -2.510289479321339914e-15 1.458795159402242803e+01 -1.590277708743545837e+01 -4.918834840982293599e+01 -9.775602960161535293e+00 3.763334392568736320e+01 -1.111974458958884924e+02 2.586370326507957529e+01 -1.379610326215146188e+01 -1.047699864567344719e+01 -2.843328313848318700e+01 -1.286152386931326674e+01 -3.966035252612638562e+00 -2.818400000000000105e+01 1.072940000000000005e+01 -1.915919999999999845e+01 -2.763368627593605471e-15 -3.036193804358384562e-16 1.000000000000000000e+01 8.803738834853755408e-15 -6.211683239530983539e-16 1.000000000000000000e+01 2.056721835431986232e-15 8.948036256233941782e-16 -3.034077440226423055e-16 -1.998179999999999978e+01 8.718970000000000331e-01 -2.396399999999999864e+00 -2.400000000000000000e+01 -9.891727215620084523e-16 2.164546329147803730e-14 -2.000000000000000000e+01 -4.369781770499418232e-16 1.080077301120139101e-14 2.056721835431986232e-15 8.948036256233941782e-16 -3.034077440226423055e-16 -2.000000000000000000e+01 -2.305630032575256887e-15 1.178893658967213999e-14 -2.400000000000000000e+01 -1.980380519355755395e-15 1.087992073755525553e-14 -2.000000000000000000e+01 -2.746196583483897454e-15 6.021244593823154385e-15 2.056721835431986232e-15 8.948036256233941782e-16 -3.034077440226423055e-16 -1.997479999999999833e+01 -1.025649999999999951e+00 2.819380000000000219e+00 -2.400000000000000000e+01 -4.356175339933211651e-15 1.369899059100667611e-14 -2.000000000000000000e+01 -1.065402229469827795e-15 1.051338030221632641e-14 2.056721835431986232e-15 8.948036256233941782e-16 -3.034077440226423055e-16 -1.978150000000000119e+01 -3.009479999999999933e+00 8.305149999999999366e+00 -2.400000000000000000e+01 -3.584667188829024380e-16 1.706307915178179197e-14 -2.000000000000000000e+01 -2.833436056612576119e-15 1.389591377324256693e-14
